<svg id="Layer_1" data-name="Layer 1" xmlns="http://www.w3.org/2000/svg" viewBox="0 0 163.24 106.56"><title>table_rectangle_8</title><path class="cls-1" d="M424,693.7H399.3V681.93s1.4-12.23,12.23-12.23,12.47,12,12.47,12v12Z" transform="translate(-364.3 -669.2)"/><path class="cls-1" d="M457.83,693.7h-24.7V681.93s1.4-12.23,12.23-12.23,12.47,12,12.47,12v12Z" transform="translate(-364.3 -669.2)"/><path class="cls-1" d="M491.66,693.7H467V681.93s1.4-12.23,12.23-12.23,12.47,12,12.47,12v12Z" transform="translate(-364.3 -669.2)"/><path class="cls-1" d="M467,751.26h24.7V763s-1.4,12.23-12.23,12.23-12.47-12-12.47-12v-12Z" transform="translate(-364.3 -669.2)"/><path class="cls-1" d="M433.13,751.26h24.7V763s-1.4,12.23-12.23,12.23-12.47-12-12.47-12v-12Z" transform="translate(-364.3 -669.2)"/><path class="cls-1" d="M399.3,751.26H424V763s-1.4,12.23-12.23,12.23-12.47-12-12.47-12v-12Z" transform="translate(-364.3 -669.2)"/><path class="cls-1" d="M503,734.83v-24.7h11.77S527,711.53,527,722.37s-12,12.47-12,12.47H503Z" transform="translate(-364.3 -669.2)"/><path class="cls-1" d="M388.8,710.13v24.7H377s-12.23-1.4-12.23-12.23,12-12.47,12-12.47h12Z" transform="translate(-364.3 -669.2)"/><rect class="cls-1" x="23.62" y="24.5" width="115.12" height="57.56"/></svg>
