<svg id="Layer_1" data-name="Layer 1" xmlns="http://www.w3.org/2000/svg" viewBox="0 0 247.04 148.33"><title>table_rectangle_12</title><path class="cls-1" d="M155.85,673.14h-24.7V661.38s1.4-12.23,12.23-12.23,12.47,12,12.47,12v12Z" transform="translate(-47.63 -648.64)"/><path class="cls-1" d="M111.18,673.14H86.48V661.38s1.4-12.23,12.23-12.23,12.47,12,12.47,12v12Z" transform="translate(-47.63 -648.64)"/><path class="cls-1" d="M245.18,673.14h-24.7V661.38s1.4-12.23,12.23-12.23,12.47,12,12.47,12v12Z" transform="translate(-47.63 -648.64)"/><path class="cls-1" d="M200.51,673.14h-24.7V661.38s1.4-12.23,12.23-12.23,12.47,12,12.47,12v12Z" transform="translate(-47.63 -648.64)"/><path class="cls-1" d="M175.81,772.48h24.7v11.77s-1.4,12.23-12.23,12.23-12.47-12-12.47-12v-12Z" transform="translate(-47.63 -648.64)"/><path class="cls-1" d="M220.48,772.48h24.7v11.77s-1.4,12.23-12.23,12.23-12.47-12-12.47-12v-12Z" transform="translate(-47.63 -648.64)"/><path class="cls-1" d="M86.48,772.48h24.7v11.77s-1.4,12.23-12.23,12.23-12.47-12-12.47-12v-12Z" transform="translate(-47.63 -648.64)"/><path class="cls-1" d="M131.15,772.48h24.7v11.77s-1.4,12.23-12.23,12.23-12.47-12-12.47-12v-12Z" transform="translate(-47.63 -648.64)"/><path class="cls-1" d="M270.17,759.43v-24.7h11.77s12.23,1.4,12.23,12.23-12,12.47-12,12.47h-12Z" transform="translate(-47.63 -648.64)"/><path class="cls-1" d="M270.17,716.13v-24.7h11.77s12.23,1.4,12.23,12.23-12,12.47-12,12.47h-12Z" transform="translate(-47.63 -648.64)"/><path class="cls-1" d="M72.13,691.43v24.7H60.36s-12.23-1.4-12.23-12.23,12-12.47,12-12.47h12Z" transform="translate(-47.63 -648.64)"/><path class="cls-1" d="M72.13,734.73v24.7H60.36S48.13,758,48.13,747.19s12-12.47,12-12.47h12Z" transform="translate(-47.63 -648.64)"/><rect class="cls-1" x="24.85" y="24.5" width="197.34" height="98.68"/></svg>
