<svg id="Layer_1" data-name="Layer 1" xmlns="http://www.w3.org/2000/svg" viewBox="0 0 147.68 147.68"><title>table_square_8</title><path class="cls-1" d="M148.92,350.95h-24.7V339.18s1.4-12.23,12.23-12.23,12.47,12,12.47,12v12Z" transform="translate(-41.73 -326.45)"/><path class="cls-1" d="M106.92,350.95H82.22V339.18s1.4-12.23,12.23-12.23,12.47,12,12.47,12v12Z" transform="translate(-41.73 -326.45)"/><path class="cls-1" d="M124.22,449.62h24.7v11.77s-1.4,12.23-12.23,12.23-12.47-12-12.47-12v-12Z" transform="translate(-41.73 -326.45)"/><path class="cls-1" d="M82.22,449.62h24.7v11.77s-1.4,12.23-12.23,12.23-12.47-12-12.47-12v-12Z" transform="translate(-41.73 -326.45)"/><path class="cls-1" d="M164.91,435.78v-24.7h11.77s12.23,1.4,12.23,12.23-12,12.47-12,12.47h-12Z" transform="translate(-41.73 -326.45)"/><path class="cls-1" d="M164.91,392.49v-24.7h11.77s12.23,1.4,12.23,12.23-12,12.47-12,12.47h-12Z" transform="translate(-41.73 -326.45)"/><path class="cls-1" d="M66.23,367.79v24.7H54.46s-12.23-1.4-12.23-12.23,12-12.47,12-12.47h12Z" transform="translate(-41.73 -326.45)"/><path class="cls-1" d="M66.23,411.08v24.7H54.46s-12.23-1.4-12.23-12.23,12-12.47,12-12.47h12Z" transform="translate(-41.73 -326.45)"/><rect class="cls-1" x="24.5" y="24.5" width="98.68" height="98.68"/></svg>
