<svg id="Layer_1" data-name="Layer 1" xmlns="http://www.w3.org/2000/svg" viewBox="0 0 106.56 106.53"><title>table_square_4</title><path class="cls-1" d="M305.86,371.54h-24.7V359.77s1.4-12.23,12.23-12.23,12.47,12,12.47,12v12Z" transform="translate(-240.31 -347.04)"/><path class="cls-1" d="M281.24,429.07h24.7v11.77s-1.4,12.23-12.23,12.23-12.47-12-12.47-12v-12Z" transform="translate(-240.31 -347.04)"/><path class="cls-1" d="M322.37,412.63v-24.7h11.77s12.23,1.4,12.23,12.23-12,12.47-12,12.47h-12Z" transform="translate(-240.31 -347.04)"/><path class="cls-1" d="M264.81,387.94v24.7H253s-12.23-1.4-12.23-12.23,12-12.47,12-12.47h12Z" transform="translate(-240.31 -347.04)"/><rect class="cls-1" x="24.5" y="24.47" width="57.56" height="57.56"/></svg>
